# xmcd
#
# Track frame offsets:
#	150
#	13702
#	31547
#	43907
#	59107
#	93277
#	106172
#	122520
#	135465
#	148230
#	157187
#	182455
#	197860
#	209640
#	221095
#	234557
#	248992
#	260347
#	284747
#	298665
#	312375
#	327082
#	338690
#	349917
#	351595
#
# Disc length: 4741 seconds
#
# Revision: 6
# Processed by: cddbd v1.5.2PL0 Copyright (c) Steve Scherf et al.
# Submitted via: EasyCDDAExtractor 15.3.0.1
#
DISCID=96128319
DTITLE=Canned Heat - Uncanned ! [CD2)
DYEAR=1994
DGENRE=Blues
TTITLE0=Evil Woman
TTITLE1=Amphetamine Annie
TTITLE2=An Owl Song
TTITLE3=Terraplane Blues
TTITLE4=Christmas Blues (Alternate Take)
TTITLE5=Going Up The Country
TTITLE6=Time Was
TTITLE7=Low Down (And High Up)
TTITLE8=Same All Over
TTITLE9=Big Fat (The Fat Man)
TTITLE10=It's All Right
TTITLE11=Poor Moon
TTITLE12=Sugar Bee
TTITLE13=Shake It And Break It
TTITLE14=Future Blues
TTITLE15=Let's Work Together (Let's Stick Together)
TTITLE16=Wooly Bully
TTITLE17=Human Condition
TTITLE18=Long Way From L A
TTITLE19=Hill's Stomp
TTITLE20=Rockin' With The King
TTITLE21=Harley Davidson Blues
TTITLE22=Rock and Roll Music
TTITLE23=It's Music City...
TTITLE24=Huh?
EXTD=YEAR: 1994
EXTT0=
EXTT1=
EXTT2=
EXTT3=
EXTT4=
EXTT5=
EXTT6=
EXTT7=
EXTT8=
EXTT9=
EXTT10=
EXTT11=
EXTT12=
EXTT13=
EXTT14=
EXTT15=
EXTT16=
EXTT17=
EXTT18=
EXTT19=
EXTT20=
EXTT21=
EXTT22=
EXTT23=
EXTT24=
PLAYORDER=
